# xmcd
#
# Track frame offsets:
#	150
#	14583
#	24640
#	44287
#	60633
#	73188
#	87702
#	100129
#	112629
#	122184
#	132217
#
# Disc length: 1892 seconds
#
# Revision: 0
# Processed by: cddbd v1.5.2PL0 Copyright (c) Steve Scherf et al.
# Submitted via: EasyCDDAExtractor 10.2.0.1
#
DISCID=9607620b
DTITLE=David Allan Coe - Penitentiary Blues
DYEAR=1969
DGENRE=Country
TTITLE0=Penitentiary Blues
TTITLE1=Cell 33
TTITLE2=Monkey David Wine
TTITLE3=Walkin' Bum
TTITLE4=One Way Ticket To Nowhere
TTITLE5=Funeral Parlor Blues
TTITLE6=Death Row
TTITLE7=Oh Warden
TTITLE8=Age 21
TTITLE9=Little David
TTITLE10=Conjer Man
EXTD=
EXTT0=
EXTT1=
EXTT2=
EXTT3=
EXTT4=
EXTT5=
EXTT6=
EXTT7=
EXTT8=
EXTT9=
EXTT10=
PLAYORDER=
